<?xml version="1.0" encoding="UTF-8" standalone="no"?>
<!-- Created with Inkscape (http://www.inkscape.org/) -->

<svg
   version="1.1"
   id="svg132884"
   xml:space="preserve"
   width="442.02783"
   height="243.33929"
   viewBox="0 0 442.02783 243.33929"
   sodipodi:docname="fullHilbert.svg"
   inkscape:version="1.1.2 (0a00cf5339, 2022-02-04, custom)"
   xmlns:inkscape="http://www.inkscape.org/namespaces/inkscape"
   xmlns:sodipodi="http://sodipodi.sourceforge.net/DTD/sodipodi-0.dtd"
   xmlns="http://www.w3.org/2000/svg"
   xmlns:svg="http://www.w3.org/2000/svg"><defs
     id="defs132888" /><sodipodi:namedview
     id="namedview132886"
     pagecolor="#ffffff"
     bordercolor="#666666"
     borderopacity="1.0"
     inkscape:pageshadow="2"
     inkscape:pageopacity="0.0"
     inkscape:pagecheckerboard="0"
     showgrid="false"
     inkscape:zoom="2.2155684"
     inkscape:cx="344.83251"
     inkscape:cy="168.57977"
     inkscape:window-width="1920"
     inkscape:window-height="1080"
     inkscape:window-x="0"
     inkscape:window-y="0"
     inkscape:window-maximized="1"
     inkscape:current-layer="g132892" /><g
     id="g132890"
     inkscape:groupmode="layer"
     inkscape:label="state_manifolds"
     transform="matrix(1.3333333,0,0,1.3333333,0,1.4168157e-6)"><g
       id="g132892"><g
         id="g132894"><path
           d="m 0.094,69.012 331.332,44.867"
           style="fill:none;stroke:#b9b9b9;stroke-width:1.42262;stroke-linecap:butt;stroke-linejoin:miter;stroke-miterlimit:4;stroke-dasharray:2.84525, 1.42262;stroke-dashoffset:0;stroke-opacity:1"
           id="path132896" /></g><g
         id="g132898"
         style="stroke:#33a633;stroke-opacity:1"><path
           d="m 52.988,76.188 220.977,30.023"
           style="fill:none;stroke:#33a633;stroke-width:1.98425;stroke-linecap:butt;stroke-linejoin:miter;stroke-miterlimit:4;stroke-dasharray:none;stroke-opacity:1"
           id="path132900" /></g><g
         id="g132902"
         style="stroke:#360036;stroke-opacity:1"><path
           d="M 58.242,49.82 279.219,79.844"
           style="fill:none;stroke:#360036;stroke-width:0.850394;stroke-linecap:butt;stroke-linejoin:miter;stroke-miterlimit:4;stroke-dasharray:6.80315, 1.70079, 0.850394, 1.70079;stroke-dashoffset:0;stroke-opacity:1"
           id="path132904" /></g><g
         id="g132922"><path
           d="M 67.531,1.215 288.508,31.238"
           style="fill:none;stroke:#000000;stroke-width:0.746816;stroke-linecap:butt;stroke-linejoin:miter;stroke-miterlimit:4;stroke-dasharray:none;stroke-opacity:1"
           id="path132924" /></g><g
         id="g132926"
         style="stroke:#360036;stroke-opacity:1"><path
           d="m 49.734,103.023 220.977,30.024"
           style="fill:none;stroke:#360036;stroke-width:0.850394;stroke-linecap:butt;stroke-linejoin:miter;stroke-miterlimit:4;stroke-dasharray:6.80315, 1.70079, 0.850394, 1.70079;stroke-dashoffset:0;stroke-opacity:1"
           id="path132928" /></g><g
         id="g132930"><path
           d="m 44.188,151.742 220.976,30.02"
           style="fill:none;stroke:#000000;stroke-width:0.746816;stroke-linecap:butt;stroke-linejoin:miter;stroke-miterlimit:4;stroke-dasharray:none;stroke-opacity:1"
           id="path132932" /></g><g
         id="g132934"
         transform="matrix(1,0.170244,-0.170293,0.999992,0,0)"
         style="stroke:#360036;stroke-opacity:1"><path
           d="M 77.904,65.269 C 77.903,79.851 72.189,91.672 65.139,91.673 58.087,91.67 52.371,79.85 52.369,65.269 52.37,50.686 58.087,38.865 65.138,38.868 72.189,38.867 77.901,50.687 77.904,65.269 Z"
           style="fill:none;stroke:#360036;stroke-width:0.838332;stroke-linecap:butt;stroke-linejoin:miter;stroke-miterlimit:4;stroke-dasharray:6.70666, 1.67666, 0.838332, 1.67666;stroke-dashoffset:0;stroke-opacity:1"
           id="path132936" /></g><g
         id="g132946"><path
           d="m 68.211,1.254 c 21.711,4.508 33.516,40.84 26.555,81.719 -6.801,39.925 -29.125,70.019 -50.789,68.465"
           style="fill:none;stroke:#000000;stroke-width:1.5874;stroke-linecap:butt;stroke-linejoin:miter;stroke-miterlimit:4;stroke-dasharray:1.5874, 1.5874;stroke-dashoffset:0;stroke-opacity:1"
           id="path132948" /></g><g
         id="g132950"><path
           d="M 43.977,151.438 C 43.27,151.387 42.57,151.301 41.875,151.184 19.723,147.414 7.488,110.762 14.551,69.32 21.609,27.879 45.289,-2.66 67.438,1.109 c 0.261,0.043 0.515,0.094 0.773,0.145"
           style="fill:none;stroke:#000000;stroke-width:1.5874;stroke-linecap:butt;stroke-linejoin:miter;stroke-miterlimit:4;stroke-dasharray:none;stroke-opacity:1"
           id="path132952" /></g><g
         id="g132962"
         transform="matrix(1,0.170244,-0.170293,0.999992,0,0)"
         style="stroke:#360036;stroke-opacity:1;stroke-width:0.99999997;stroke-miterlimit:4;stroke-dasharray:none;stroke-dashoffset:0"><path
           d="m 297.62,58.075 c -10e-4,14.582 -5.715,26.403 -12.765,26.404 -7.051,0.001 -12.767,-11.823 -12.766,-26.405 -0.002,-14.578 5.715,-26.399 12.766,-26.4 7.05,-0.002 12.766,11.818 12.765,26.401 z"
           style="fill:none;stroke:#360036;stroke-width:0.99999997;stroke-linecap:butt;stroke-linejoin:miter;stroke-miterlimit:4;stroke-dasharray:none;stroke-dashoffset:0;stroke-opacity:1"
           id="path132964" /></g><g
         id="g132974"
         transform="matrix(1,0.1702,-0.170344,0.999976,0,0)"><path
           d="m 325.549,57.776 c 0.001,41.443 -17.956,75.039 -40.108,75.04 -22.149,0 -40.106,-33.597 -40.107,-75.039 -0.001,-41.443 17.956,-75.039 40.108,-75.04 22.149,0 40.106,33.597 40.107,75.039 z"
           style="fill:none;stroke:#000000;stroke-width:1.5649;stroke-linecap:butt;stroke-linejoin:miter;stroke-miterlimit:4;stroke-dasharray:none;stroke-opacity:1"
           id="path132976" /></g><g
         id="g132978"
         transform="matrix(1,0.170244,-0.170293,0.999992,0,0)"
         style="stroke:#8c8ce6;stroke-opacity:1"><path
           d="m 146.898,63.215 c -0.001,14.582 -5.715,26.403 -12.766,26.4 -7.051,0.001 -12.767,-11.819 -12.766,-26.401 -0.002,-14.582 5.715,-26.403 12.766,-26.404 7.051,0.002 12.767,11.822 12.766,26.405 z"
           style="fill:none;stroke:#8c8ce6;stroke-width:0.558888;stroke-linecap:butt;stroke-linejoin:miter;stroke-miterlimit:4;stroke-dasharray:0.558888, 0.558888;stroke-dashoffset:0;stroke-opacity:1"
           id="path132980" /></g><g
         id="g132982"
         style="stroke-width:0.99975002;stroke-miterlimit:4;stroke-dasharray:0.99975002,0.99975002;stroke:#8c8ce6;stroke-opacity:1;stroke-dashoffset:0"><path
           d="m 135.641,10.637 c 0.382,0.043 0.761,0.097 1.144,0.164 22.149,3.769 34.383,40.422 27.324,81.863 -6.964,40.879 -30.136,71.262 -52.117,68.328"
           style="fill:none;stroke:#8c8ce6;stroke-width:0.99975002;stroke-linecap:butt;stroke-linejoin:miter;stroke-miterlimit:4;stroke-dasharray:0.99975002,0.99975002;stroke-dashoffset:0;stroke-opacity:1"
           id="path132984" /></g><g
         id="g132986"
         style="stroke-width:0.99975002;stroke-miterlimit:4;stroke-dasharray:none;stroke:#8c8ce6;stroke-opacity:1"><path
           d="m 111.992,160.992 c -0.258,-0.035 -0.515,-0.074 -0.773,-0.117 C 89.07,157.105 76.836,120.453 83.895,79.012 90.812,38.398 113.746,8.098 135.641,10.637"
           style="fill:none;stroke:#8c8ce6;stroke-width:0.99975002;stroke-linecap:butt;stroke-linejoin:miter;stroke-miterlimit:4;stroke-dasharray:none;stroke-opacity:1"
           id="path132988" /></g><g
         id="g132990"
         transform="matrix(1,0.170244,-0.170293,0.999992,0,0)"
         style="stroke:#8c8ce6;stroke-opacity:1"><path
           d="m 207.232,61.119 c 0.003,14.582 -5.714,26.403 -12.766,26.4 -7.05,10e-4 -12.766,-11.819 -12.765,-26.401 0.001,-14.582 5.715,-26.403 12.765,-26.404 7.051,0.003 12.767,11.823 12.766,26.405 z"
           style="fill:none;stroke:#8c8ce6;stroke-width:0.558888;stroke-linecap:butt;stroke-linejoin:miter;stroke-miterlimit:4;stroke-dasharray:0.558888, 0.558888;stroke-dashoffset:0;stroke-opacity:1"
           id="path132992" /></g><g
         id="g132994"
         style="stroke-width:0.99975002;stroke-miterlimit:4;stroke-dasharray:0.99975002,0.99975002;stroke:#8c8ce6;stroke-opacity:1;stroke-dashoffset:0"><path
           d="m 196.359,18.855 c 0.375,0.043 0.746,0.098 1.118,0.161 22.152,3.769 34.386,40.422 27.324,81.863 -6.961,40.859 -30.113,71.234 -52.086,68.332"
           style="fill:none;stroke:#8c8ce6;stroke-width:0.99975002;stroke-linecap:butt;stroke-linejoin:miter;stroke-miterlimit:4;stroke-dasharray:0.99975002,0.99975002;stroke-dashoffset:0;stroke-opacity:1"
           id="path132996" /></g><g
         id="g132998"
         style="stroke-width:0.99975002;stroke-miterlimit:4;stroke-dasharray:none;stroke:#8c8ce6;stroke-opacity:1"><path
           d="m 172.715,169.211 c -0.27,-0.035 -0.535,-0.074 -0.805,-0.121 -10.637,-1.809 -19.492,-11.453 -24.613,-26.805 -5.125,-15.351 -6.102,-35.156 -2.711,-55.058 6.922,-40.633 29.875,-70.942 51.773,-68.372"
           style="fill:none;stroke:#8c8ce6;stroke-width:0.99975002;stroke-linecap:butt;stroke-linejoin:miter;stroke-miterlimit:4;stroke-dasharray:none;stroke-opacity:1"
           id="path133000" /></g><g
         id="g133002"><path
           d="m 123.465,60.93 -0.238,20.215"
           style="fill:none;stroke:#b9b9b9;stroke-width:0.653145;stroke-linecap:butt;stroke-linejoin:miter;stroke-miterlimit:3.2;stroke-dasharray:none;stroke-opacity:1"
           id="path133004" /></g><g
         id="g133006"
         transform="matrix(-0.0118662,1,-1,-0.0118662,0,0)"><path
           d="m 82.687,-124.173 -4.52,2.613 v -5.223 z"
           style="fill:#b9b9b9;fill-opacity:1;fill-rule:evenodd;stroke:#b9b9b9;stroke-width:0.696639;stroke-linecap:butt;stroke-linejoin:miter;stroke-miterlimit:4;stroke-dasharray:none;stroke-opacity:1"
           id="path133008" /></g><g
         id="g133010"><path
           d="m 184.488,69.074 -0.242,20.215"
           style="fill:none;stroke:#b9b9b9;stroke-width:0.653145;stroke-linecap:butt;stroke-linejoin:miter;stroke-miterlimit:3.2;stroke-dasharray:none;stroke-opacity:1"
           id="path133012" /></g><g
         id="g133014"
         transform="matrix(-0.0118662,1,-1,-0.0118662,0,0)"><path
           d="m 90.106,-185.28 -4.52,2.612 0.001,-5.226 z"
           style="fill:#b9b9b9;fill-opacity:1;fill-rule:evenodd;stroke:#b9b9b9;stroke-width:0.696639;stroke-linecap:butt;stroke-linejoin:miter;stroke-miterlimit:4;stroke-dasharray:none;stroke-opacity:1"
           id="path133016" /></g><g
         id="g133018"
         style="stroke:none;stroke-opacity:1;fill:#04e31b;fill-opacity:1;stroke-width:0;stroke-miterlimit:4;stroke-dasharray:none"><path
           d="m 124.695,85.801 c 0,0.89 -0.722,1.613 -1.617,1.613 -0.89,0 -1.617,-0.723 -1.617,-1.613 0,-0.895 0.727,-1.617 1.617,-1.617 0.895,0 1.617,0.722 1.617,1.617 z"
           style="fill:#04e31b;fill-opacity:1;fill-rule:evenodd;stroke:none;stroke-width:0;stroke-linecap:butt;stroke-linejoin:miter;stroke-miterlimit:4;stroke-dasharray:none;stroke-opacity:1"
           id="path133020" /></g><g
         id="g133022"
         style="stroke:none;stroke-opacity:1;fill:#04e31b;fill-opacity:1;stroke-width:0;stroke-miterlimit:4;stroke-dasharray:none"><path
           d="m 185.727,94.113 c 0,0.891 -0.723,1.617 -1.618,1.617 -0.89,0 -1.617,-0.726 -1.617,-1.617 0,-0.894 0.727,-1.617 1.617,-1.617 0.895,0 1.618,0.723 1.618,1.617 z"
           style="fill:#04e31b;fill-opacity:1;fill-rule:evenodd;stroke:none;stroke-width:0;stroke-linecap:butt;stroke-linejoin:miter;stroke-miterlimit:4;stroke-dasharray:none;stroke-opacity:1"
           id="path133024" /></g></g></g></svg>
